<svg width="19" height="15" viewBox="0 0 19 15" fill="none" xmlns="http://www.w3.org/2000/svg">
<g clip-path="url(#clip0_193_132)">
<path d="M18.2812 6.09375H16.4062V4.21875C16.4062 3.96094 16.1953 3.75 15.9375 3.75H15C14.7422 3.75 14.5312 3.96094 14.5312 4.21875V6.09375H12.6562C12.3984 6.09375 12.1875 6.30469 12.1875 6.5625V7.5C12.1875 7.75781 12.3984 7.96875 12.6562 7.96875H14.5312V9.84375C14.5312 10.1016 14.7422 10.3125 15 10.3125H15.9375C16.1953 10.3125 16.4062 10.1016 16.4062 9.84375V7.96875H18.2812C18.5391 7.96875 18.75 7.75781 18.75 7.5V6.5625C18.75 6.30469 18.5391 6.09375 18.2812 6.09375ZM6.5625 7.5C8.63379 7.5 10.3125 5.82129 10.3125 3.75C10.3125 1.67871 8.63379 0 6.5625 0C4.49121 0 2.8125 1.67871 2.8125 3.75C2.8125 5.82129 4.49121 7.5 6.5625 7.5ZM9.1875 8.4375H8.69824C8.04785 8.73633 7.32422 8.90625 6.5625 8.90625C5.80078 8.90625 5.08008 8.73633 4.42676 8.4375H3.9375C1.76367 8.4375 0 10.2012 0 12.375V13.5938C0 14.3701 0.629883 15 1.40625 15H11.7188C12.4951 15 13.125 14.3701 13.125 13.5938V12.375C13.125 10.2012 11.3613 8.4375 9.1875 8.4375Z" fill="white"/>
</g>
<defs>
<clipPath id="clip0_193_132">
<rect width="18.75" height="15" fill="white"/>
</clipPath>
</defs>
</svg>